<?xml version="1.0" encoding="iso-8859-1"?>
<!-- Generator: Adobe Illustrator 19.0.0, SVG Export Plug-In . SVG Version: 6.00 Build 0)  -->
<svg version="1.1" id="Layer_1" xmlns="http://www.w3.org/2000/svg" xmlns:xlink="http://www.w3.org/1999/xlink" x="0px" y="0px"
	 viewBox="0 0 512 512" style="enable-background:new 0 0 512 512;" xml:space="preserve">
<path style="fill:#F57847;" d="M256,10.449C120.386,10.449,10.449,120.386,10.449,256S120.386,501.551,256,501.551
	S501.551,391.614,501.551,256S391.614,10.449,256,10.449z M256,322.872c-36.933,0-66.872-29.94-66.872-66.872
	c0-36.933,29.939-66.872,66.872-66.872s66.872,29.939,66.872,66.872S292.933,322.872,256,322.872z"/>
<path style="fill:#FF7DBE;" d="M429.761,291.975c-15.681-21.42-15.681-50.529,0-71.949l0,0
	c31.272-42.719-3.094-102.243-55.725-96.519l0,0c-26.39,2.869-51.599-11.685-62.309-35.975l0,0
	c-21.359-48.441-90.092-48.441-111.451,0l0,0c-10.71,24.29-35.919,38.844-62.309,35.975l0,0
	c-52.632-5.723-86.998,53.801-55.725,96.519l0,0c15.681,21.419,15.681,50.529,0,71.949l0,0
	c-31.272,42.719,3.094,102.243,55.725,96.519l0,0c26.39-2.869,51.599,11.685,62.309,35.975l0,0
	c21.359,48.441,90.092,48.441,111.451,0l0,0c10.71-24.29,35.919-38.844,62.309-35.975l0,0
	C426.666,394.217,461.033,334.693,429.761,291.975L429.761,291.975z M256,322.872c-36.933,0-66.872-29.94-66.872-66.872
	c0-36.933,29.939-66.872,66.872-66.872s66.872,29.939,66.872,66.872S292.933,322.872,256,322.872z"/>
<path d="M256,512c-68.38,0-132.668-26.628-181.019-74.981S0,324.38,0,256S26.628,123.332,74.981,74.981S187.62,0,256,0
	s132.668,26.628,181.019,74.981S512,187.62,512,256s-26.628,132.668-74.981,181.019S324.38,512,256,512z M256,20.898
	C126.365,20.898,20.898,126.365,20.898,256S126.365,491.102,256,491.102S491.102,385.635,491.102,256S385.635,20.898,256,20.898z"/>
<path d="M256,333.322c-42.636,0-77.322-34.686-77.322-77.322c0-28.26,15.409-54.259,40.214-67.85
	c5.06-2.773,11.411-0.918,14.183,4.143c2.773,5.061,0.918,11.411-4.143,14.184c-18.107,9.922-29.356,28.898-29.356,49.523
	c0,31.113,25.313,56.424,56.424,56.424s56.424-25.312,56.424-56.424c0-20.711-11.317-39.724-29.537-49.62
	c-5.071-2.754-6.949-9.098-4.194-14.17c2.755-5.071,9.098-6.95,14.17-4.194c24.956,13.557,40.46,39.607,40.46,67.984
	C333.322,298.636,298.636,333.322,256,333.322z"/>
<path d="M256,471.249c-28.694,0-53.71-16.31-65.286-42.564c-8.912-20.214-29.65-32.193-51.618-29.803
	c-2.702,0.294-5.392,0.439-8.052,0.439c-25.415,0.001-48.467-13.201-61.454-35.697c-14.346-24.85-12.731-54.669,4.217-77.822
	c13.05-17.826,13.05-41.779,0-59.605c-16.949-23.153-18.565-52.972-4.217-77.822c14.346-24.85,40.984-38.357,69.505-35.258
	c21.969,2.389,42.707-9.589,51.619-29.802C202.29,57.061,227.306,40.751,256,40.751s53.71,16.31,65.286,42.564l0,0
	c8.912,20.214,29.653,32.192,51.618,29.803c28.522-3.101,55.158,10.407,69.506,35.258c14.346,24.85,12.731,54.669-4.217,77.822
	c-13.05,17.826-13.05,41.779,0,59.605c16.949,23.153,18.565,52.972,4.217,77.822c-14.346,24.851-40.974,38.36-69.505,35.258
	c-21.971-2.391-42.707,9.589-51.619,29.802C309.71,454.939,284.694,471.249,256,471.249z M144.677,377.68
	c28.064,0,53.62,16.406,65.159,42.572c8.186,18.565,25.875,30.098,46.165,30.098s37.979-11.533,46.165-30.098
	c12.605-28.586,41.948-45.525,73-42.146c20.174,2.188,39.003-7.359,49.148-24.931c10.145-17.572,9.002-38.657-2.982-55.03
	c-18.454-25.209-18.454-59.084,0-84.293c11.985-16.371,13.127-37.457,2.982-55.03s-28.976-27.128-49.147-24.931
	c-31.072,3.372-60.395-13.561-73.001-42.146l0,0C293.979,73.182,276.29,61.649,256,61.649s-37.979,11.533-46.165,30.098
	c-11.538,26.165-37.096,42.571-65.158,42.573c-2.597,0-5.211-0.14-7.842-0.426c-20.177-2.194-39.003,7.359-49.148,24.931
	s-9.002,38.657,2.982,55.03c18.454,25.209,18.454,59.084,0,84.293c-11.984,16.37-13.127,37.456-2.982,55.027
	s28.974,27.127,49.147,24.931C139.465,377.82,142.082,377.68,144.677,377.68z"/>
<path d="M225.698,131.657c-2.675,0-5.348-1.02-7.388-3.061c-4.08-4.08-4.08-10.697,0-14.778l14.629-14.629
	c4.081-4.08,10.696-4.08,14.778,0c4.08,4.08,4.08,10.697,0,14.778l-14.629,14.629C231.046,130.637,228.373,131.657,225.698,131.657z
	"/>
<path d="M362.585,347.951c-2.675,0-5.348-1.02-7.388-3.061c-4.08-4.08-4.08-10.697,0-14.778l14.629-14.629
	c4.081-4.08,10.696-4.08,14.778,0c4.08,4.08,4.08,10.697,0,14.778l-14.629,14.629C367.933,346.931,365.259,347.951,362.585,347.951z
	"/>
<path d="M140.104,273.763c-2.675,0-5.348-1.02-7.388-3.06c-4.08-4.08-4.08-10.697,0-14.778l14.629-14.629
	c4.081-4.08,10.696-4.08,14.778,0c4.08,4.08,4.08,10.697,0,14.778l-14.629,14.629C145.452,272.743,142.779,273.763,140.104,273.763z
	"/>
<path d="M344.83,194.351c-2.675,0-5.348-1.02-7.388-3.061c-4.08-4.08-4.08-10.697,0-14.778l14.629-14.629
	c4.081-4.08,10.696-4.08,14.778,0c4.08,4.08,4.08,10.697,0,14.778l-14.629,14.629C350.178,193.331,347.504,194.351,344.83,194.351z"
	/>
<path d="M225.698,399.725c-2.675,0-5.348-1.02-7.388-3.06c-4.08-4.08-4.08-10.697,0-14.778l14.629-14.629
	c4.081-4.08,10.696-4.08,14.778,0c4.08,4.08,4.08,10.697,0,14.778l-14.629,14.629C231.046,398.705,228.373,399.725,225.698,399.725z
	"/>
<path d="M316.593,379.287c-2.675,0-5.348-1.02-7.388-3.06l-14.617-14.618c-4.08-4.08-4.08-10.697,0-14.777
	c4.082-4.079,10.697-4.08,14.778,0l14.617,14.618c4.08,4.08,4.08,10.697,0,14.777C321.94,378.267,319.266,379.287,316.593,379.287z"
	/>
<path d="M142.101,194.346c-2.675,0-5.348-1.02-7.388-3.061l-14.618-14.617c-4.08-4.08-4.08-10.697,0-14.777
	c4.079-4.08,10.696-4.081,14.778,0l14.618,14.617c4.08,4.08,4.08,10.697,0,14.777C147.45,193.325,144.776,194.346,142.101,194.346z"
	/>
<path d="M377.208,273.749c-2.675,0-5.348-1.02-7.388-3.06l-14.617-14.618c-4.08-4.08-4.08-10.697,0-14.777
	c4.083-4.08,10.698-4.079,14.778,0l14.617,14.618c4.08,4.08,4.08,10.697,0,14.777C382.556,272.728,379.882,273.749,377.208,273.749z
	"/>
<path d="M136.87,357.432c-2.675,0-5.348-1.02-7.388-3.06l-14.617-14.618c-4.08-4.08-4.08-10.697,0-14.777
	c4.083-4.08,10.698-4.08,14.778,0l14.617,14.618c4.08,4.08,4.08,10.697,0,14.777C142.218,356.413,139.544,357.432,136.87,357.432z"
	/>
<path d="M256.134,199.577c-0.015,0-0.027,0-0.041,0l-0.268-0.001c-5.77-0.022-10.43-4.718-10.409-10.489
	c0.022-5.757,4.696-10.409,10.448-10.409c0.015,0,0.027,0,0.041,0l0.267,0.001c5.77,0.022,10.43,4.718,10.409,10.489
	C266.559,194.925,261.886,199.577,256.134,199.577z"/>
<g>
</g>
<g>
</g>
<g>
</g>
<g>
</g>
<g>
</g>
<g>
</g>
<g>
</g>
<g>
</g>
<g>
</g>
<g>
</g>
<g>
</g>
<g>
</g>
<g>
</g>
<g>
</g>
<g>
</g>
</svg>
