<?xml version="1.0" encoding="iso-8859-1"?>
<!-- Generator: Adobe Illustrator 19.0.0, SVG Export Plug-In . SVG Version: 6.00 Build 0)  -->
<svg version="1.1" id="Layer_1" xmlns="http://www.w3.org/2000/svg" xmlns:xlink="http://www.w3.org/1999/xlink" x="0px" y="0px"
	 viewBox="0 0 463.02 463.02" style="enable-background:new 0 0 463.02 463.02;" xml:space="preserve">
<g transform="translate(0 -540.36)">
	<g>
		<g>
			<path d="M119.4,831.276l-24.9,16.2c-3.5,2.3-4.5,6.9-2.2,10.4c1.4,2.2,3.8,3.4,6.3,3.4c1.4,0,2.8-0.4,4.1-1.2l24.9-16.2
				c3.5-2.3,4.5-6.9,2.2-10.4C127.5,829.976,122.9,828.976,119.4,831.276z"/>
			<path d="M179.5,899.476c-2.3-3.5-6.9-4.5-10.4-2.2s-4.5,6.9-2.2,10.4l16.2,24.9c1.4,2.2,3.8,3.4,6.3,3.4c1.4,0,2.8-0.4,4.1-1.2
				c3.5-2.3,4.5-6.9,2.2-10.4L179.5,899.476z"/>
			<path d="M310.6,914.876c-3.3-2.4-8-1.6-10.4,1.8l-17.4,24.9c-2.4,3.3-1.6,8,1.8,10.4c1.3,1,2.8,1.4,4.3,1.4
				c2.4,0,4.7-1.1,6.1-3.2l17.4-24.9C314.8,921.976,314,917.276,310.6,914.876z"/>
			<path d="M333.7,830.576l-18.9-6.6c9.9-15.6,15.2-33.5,15.2-52.3c0-54.9-44.1-99.6-98.3-99.6c-26.7,0-51.7,10.3-70.5,29.1
				c-18.8,18.8-29.1,43.8-29.1,70.5c0,54.2,44.7,98.3,99.6,98.3c26.1,0,50.7-10.3,69.4-29c1.5-1.5,2.9-3,4.3-4.6l23.4,8.2
				c0.8,0.3,1.7,0.4,2.5,0.4c3.1,0,6-1.9,7.1-5C339.7,836.176,337.6,831.876,333.7,830.576z M231.7,854.976
				c-46.6,0-84.6-37.4-84.6-83.3c0-46.6,37.9-84.6,84.6-84.6c46,0,83.3,37.9,83.3,84.6C315,817.676,277.7,854.976,231.7,854.976z"/>
			<path d="M410,797.776l-24.9-16.2c-3.5-2.3-8.1-1.3-10.4,2.2s-1.3,8.1,2.2,10.4l24.9,16.2c1.3,0.8,2.7,1.2,4.1,1.2
				c2.5,0,4.9-1.2,6.3-3.4C414.5,804.676,413.5,800.076,410,797.776z"/>
			<path d="M116.4,730.776c-4-0.9-8,1.7-8.9,5.7l-7.5,33.6c-0.9,4,1.7,8,5.7,8.9c0.5,0.1,1.1,0.2,1.6,0.2c3.4,0,6.5-2.4,7.3-5.9
				l7.5-33.6C123,735.676,120.4,731.676,116.4,730.776z"/>
			<path d="M160.2,629.376l15.5,22.2c1.5,2.1,3.8,3.2,6.2,3.2c1.5,0,3-0.4,4.3-1.4c3.4-2.4,4.2-7.1,1.8-10.4l-13.8-19.8
				c17.8-6.9,37.2-10.7,57.5-10.7c4.1,0,7.5-3.4,7.5-7.5s-3.4-7.6-7.5-7.6c-96.1,0-174.3,78.2-174.3,174.3c0,5.2-2.7,10.5-7.1,14.1
				c-4.1,3.3-10.1,4.2-15.3,2.5c-3.9-1.3-8.2,0.8-9.5,4.7s0.8,8.2,4.7,9.5c3.3,1.1,6.7,1.6,10.1,1.6c7,0,13.9-2.3,19.3-6.6
				c8-6.4,12.8-16,12.8-25.8C72.4,709.576,108.2,655.576,160.2,629.376z"/>
			<path d="M460.6,744.475c-0.5-3.7-3.7-6.4-7.4-6.4c-1.6,0-3,0.4-4.2,0.8c-0.6,0.2-1.6,0.5-2,0.5c-28.1,0-51-22.9-51-51
				c0-6.2,1-11.6,3.3-18.8c1.3-3.8-0.7-7.9-4.4-9.4c-14.9-5.7-26.2-18.3-30.3-33.5c-0.6-2.2-2.1-4-4.2-4.9c-2.1-0.9-4.4-0.9-6.4,0.1
				c-1,0.5-4.5,0.5-6.6,0.5c-17.6,0-33.8-8.9-43.5-23.9c-1.7-2.7-5-4-8.1-3.2c-5.9,1.5-10.9,2.3-14.4,2.3c-28.1,0-51-22.3-51-49.7
				c0-2-0.8-4-2.3-5.4s-3.4-2.2-5.5-2.1c-60.2,1.9-116.4,26.9-158.1,70.4c-41.6,43.4-64.5,100.6-64.5,161.1
				c0,61.7,24,119.8,67.5,163.5c43.7,43.9,101.9,68,164,68c61.6,0,119.7-24.1,163.5-68c43.8-43.8,68-101.9,68-163.5
				C463.2,762.375,461.9,753.275,460.6,744.475z M231.7,988.176c-119.4,0-216.5-97.1-216.5-216.5c0-115.3,87.6-208.9,200.8-216.2
				c4,32,31.8,56.9,65.5,56.9c3.6,0,7.9-0.5,12.9-1.6c2.4,3.2,5.1,6.1,8,8.8l-24.3,12.1c-3.7,1.9-5.2,6.4-3.4,10.1
				c1.3,2.6,4,4.1,6.7,4.1c1.1,0,2.3-0.3,3.3-0.8l31.4-15.7c9.5,5,20.1,7.8,31.2,7.8c1.6,0,3.3,0,4.9-0.1
				c5.7,14.7,16.7,26.8,30.8,34.1c-1.5,5.9-2.2,11.2-2.2,17c0,36.3,29.5,65.9,65.9,66c0.8,5.9,1.3,11.7,1.3,17.4
				C448.2,891.076,351.1,988.176,231.7,988.176z"/>
		</g>
	</g>
</g>
<g>
</g>
<g>
</g>
<g>
</g>
<g>
</g>
<g>
</g>
<g>
</g>
<g>
</g>
<g>
</g>
<g>
</g>
<g>
</g>
<g>
</g>
<g>
</g>
<g>
</g>
<g>
</g>
<g>
</g>
</svg>
